<?xml version="1.0" encoding="UTF-8"?>
<svg xmlns="http://www.w3.org/2000/svg" xmlns:xlink="http://www.w3.org/1999/xlink" width="1920" height="1080" viewBox="0 0 1920 1080">
<defs>
<g>
<g id="glyph-0-0">
<path d="M 4.699219 -1.285156 C 4.558594 -0.832031 4.316406 -0.488281 3.980469 -0.253906 C 3.640625 -0.0234375 3.214844 0.09375 2.699219 0.09375 C 2.382812 0.09375 2.085938 0.0390625 1.816406 -0.0703125 C 1.546875 -0.175781 1.304688 -0.335938 1.09375 -0.546875 C 0.851562 -0.789062 0.671875 -1.066406 0.550781 -1.375 C 0.433594 -1.683594 0.375 -2.035156 0.375 -2.425781 C 0.375 -3.179688 0.59375 -3.789062 1.027344 -4.253906 C 1.464844 -4.714844 2.039062 -4.949219 2.753906 -4.949219 C 3.019531 -4.949219 3.300781 -4.914062 3.601562 -4.84375 C 3.898438 -4.773438 4.222656 -4.667969 4.566406 -4.527344 L 4.566406 -3.40625 L 4.199219 -3.40625 C 4.117188 -3.816406 3.957031 -4.117188 3.714844 -4.308594 C 3.472656 -4.503906 3.132812 -4.601562 2.699219 -4.601562 C 2.179688 -4.601562 1.785156 -4.414062 1.519531 -4.046875 C 1.253906 -3.679688 1.121094 -3.140625 1.121094 -2.425781 C 1.121094 -1.714844 1.253906 -1.171875 1.519531 -0.804688 C 1.785156 -0.4375 2.179688 -0.253906 2.699219 -0.253906 C 3.0625 -0.253906 3.359375 -0.339844 3.59375 -0.511719 C 3.828125 -0.683594 3.996094 -0.941406 4.101562 -1.285156 Z "/>
</g>
<g id="glyph-0-1">
<path d="M 1.367188 -0.34375 L 1.933594 -0.34375 L 1.933594 0 L 0.191406 0 L 0.191406 -0.34375 L 0.769531 -0.34375 L 0.769531 -4.71875 L 0.191406 -4.71875 L 0.191406 -5.066406 L 1.367188 -5.066406 Z "/>
</g>
<g id="glyph-0-2">
<path d="M 0.648438 -4.535156 C 0.648438 -4.632812 0.683594 -4.722656 0.757812 -4.796875 C 0.828125 -4.867188 0.917969 -4.90625 1.019531 -4.90625 C 1.117188 -4.90625 1.203125 -4.867188 1.277344 -4.796875 C 1.351562 -4.722656 1.386719 -4.632812 1.386719 -4.535156 C 1.386719 -4.433594 1.351562 -4.34375 1.277344 -4.273438 C 1.207031 -4.203125 1.121094 -4.167969 1.019531 -4.167969 C 0.917969 -4.167969 0.828125 -4.203125 0.757812 -4.273438 C 0.683594 -4.34375 0.648438 -4.433594 0.648438 -4.535156 M 1.414062 -0.34375 L 1.980469 -0.34375 L 1.980469 0 L 0.242188 0 L 0.242188 -0.34375 L 0.8125 -0.34375 L 0.8125 -3.113281 L 0.242188 -3.113281 L 0.242188 -3.460938 L 1.414062 -3.460938 Z "/>
</g>
<g id="glyph-0-3">
<path d="M 0.273438 0 L 0.273438 -0.34375 L 0.8125 -0.34375 L 0.8125 -3.113281 L 0.242188 -3.113281 L 0.242188 -3.460938 L 1.414062 -3.460938 L 1.414062 -2.84375 C 1.523438 -3.078125 1.667969 -3.257812 1.84375 -3.375 C 2.019531 -3.496094 2.226562 -3.554688 2.460938 -3.554688 C 2.84375 -3.554688 3.125 -3.445312 3.304688 -3.226562 C 3.484375 -3.007812 3.574219 -2.664062 3.574219 -2.199219 L 3.574219 -0.34375 L 4.109375 -0.34375 L 4.109375 0 L 2.453125 0 L 2.453125 -0.34375 L 2.972656 -0.34375 L 2.972656 -2.011719 C 2.972656 -2.433594 2.917969 -2.726562 2.816406 -2.882812 C 2.710938 -3.039062 2.527344 -3.117188 2.265625 -3.117188 C 1.988281 -3.117188 1.777344 -3.015625 1.628906 -2.8125 C 1.484375 -2.609375 1.414062 -2.316406 1.414062 -1.925781 L 1.414062 -0.34375 L 1.933594 -0.34375 L 1.933594 0 Z "/>
</g>
<g id="glyph-0-4">
<path d="M 3.425781 -1.039062 C 3.34375 -0.667969 3.179688 -0.386719 2.9375 -0.195312 C 2.699219 -0.00390625 2.386719 0.09375 2.003906 0.09375 C 1.5 0.09375 1.097656 -0.0703125 0.789062 -0.40625 C 0.484375 -0.738281 0.332031 -1.179688 0.332031 -1.730469 C 0.332031 -2.285156 0.484375 -2.726562 0.789062 -3.058594 C 1.097656 -3.390625 1.5 -3.554688 2.003906 -3.554688 C 2.222656 -3.554688 2.441406 -3.527344 2.660156 -3.476562 C 2.875 -3.425781 3.09375 -3.347656 3.3125 -3.246094 L 3.3125 -2.359375 L 2.964844 -2.359375 C 2.917969 -2.664062 2.820312 -2.886719 2.667969 -3.023438 C 2.515625 -3.164062 2.296875 -3.230469 2.011719 -3.230469 C 1.6875 -3.230469 1.445312 -3.105469 1.277344 -2.855469 C 1.113281 -2.605469 1.03125 -2.230469 1.03125 -1.730469 C 1.03125 -1.234375 1.113281 -0.855469 1.277344 -0.605469 C 1.441406 -0.355469 1.6875 -0.226562 2.011719 -0.226562 C 2.269531 -0.226562 2.476562 -0.296875 2.628906 -0.429688 C 2.785156 -0.5625 2.890625 -0.765625 2.945312 -1.039062 Z "/>
</g>
<g id="glyph-0-5">
<path d="M 0.273438 0 L 0.273438 -0.34375 L 0.8125 -0.34375 L 0.8125 -4.71875 L 0.242188 -4.71875 L 0.242188 -5.066406 L 1.414062 -5.066406 L 1.414062 -2.84375 C 1.523438 -3.078125 1.667969 -3.257812 1.84375 -3.375 C 2.019531 -3.496094 2.226562 -3.554688 2.460938 -3.554688 C 2.84375 -3.554688 3.125 -3.445312 3.304688 -3.226562 C 3.484375 -3.007812 3.574219 -2.664062 3.574219 -2.199219 L 3.574219 -0.34375 L 4.109375 -0.34375 L 4.109375 0 L 2.453125 0 L 2.453125 -0.34375 L 2.972656 -0.34375 L 2.972656 -2.011719 C 2.972656 -2.433594 2.921875 -2.722656 2.816406 -2.878906 C 2.714844 -3.035156 2.53125 -3.113281 2.265625 -3.113281 C 1.988281 -3.113281 1.777344 -3.011719 1.628906 -2.808594 C 1.484375 -2.605469 1.414062 -2.3125 1.414062 -1.925781 L 1.414062 -0.34375 L 1.933594 -0.34375 L 1.933594 0 Z "/>
</g>
</g>
</defs>
<g fill="rgb(100%, 100%, 100%)" fill-opacity="1">
<use xlink:href="#glyph-0-0" x="30" y="26.1875"/>
<use xlink:href="#glyph-0-1" x="35" y="26.1875"/>
<use xlink:href="#glyph-0-2" x="37" y="26.1875"/>
<use xlink:href="#glyph-0-3" x="39" y="26.1875"/>
<use xlink:href="#glyph-0-4" x="43" y="26.1875"/>
<use xlink:href="#glyph-0-5" x="47" y="26.1875"/>
</g>
</svg>
